<?xml version="1.0" standalone="no"?>
<!DOCTYPE svg PUBLIC "-//W3C//DTD SVG 20010904//EN"
 "http://www.w3.org/TR/2001/REC-SVG-20010904/DTD/svg10.dtd">
<svg version="1.0" xmlns="http://www.w3.org/2000/svg"
 width="1280.000000pt" height="1252.000000pt" viewBox="0 0 1280.000000 1252.000000"
 preserveAspectRatio="xMidYMid meet">

<g transform="translate(0.000000,1252.000000) scale(0.100000,-0.100000)"
fill="#e6e600" stroke="none">
<path d="M4448 7903 l-3 -1746 -63 -13 c-177 -36 -336 -128 -483 -281 -89 -91
-129 -148 -178 -246 -78 -159 -103 -320 -82 -518 24 -225 87 -364 242 -541
l59 -66 0 -766 0 -766 138 0 c121 0 141 2 172 21 19 12 104 91 188 177 l152
157 158 -158 c86 -87 171 -167 187 -177 26 -17 48 -20 168 -20 l137 0 0 335 0
335 1800 0 1800 0 0 2440 c0 2220 -1 2444 -16 2473 -19 38 -1047 1072 -1086
1093 -23 12 -262 14 -1657 14 l-1631 0 -2 -1747z m3084 965 l3 -513 513 -3
512 -2 0 -2225 0 -2225 -1660 0 -1660 0 0 294 0 295 55 63 c164 187 240 364
252 588 14 256 -54 470 -211 665 -132 165 -346 300 -540 339 l-61 13 -3 1611
-2 1612 1400 0 1400 0 2 -512z m658 -65 l175 -173 -277 0 -278 0 0 272 0 271
103 -98 c56 -55 181 -177 277 -272z m-3440 -2939 c188 -43 364 -185 454 -368
102 -206 84 -466 -45 -660 -58 -87 -78 -109 -154 -171 -127 -103 -280 -151
-445 -141 -204 12 -382 105 -512 267 -94 117 -138 247 -138 409 0 120 17 190
77 310 78 156 217 278 382 336 130 45 237 50 381 18z m-436 -1581 c89 -31 272
-47 388 -34 46 6 122 21 171 35 48 14 89 26 92 26 3 0 5 -219 5 -486 0 -312
-3 -484 -10 -482 -5 2 -88 81 -183 176 -95 94 -177 172 -182 172 -6 0 -92 -82
-192 -182 l-183 -183 0 185 c-1 102 -3 326 -6 499 -6 302 -5 314 13 306 10 -5
49 -19 87 -32z"/>
<path d="M5150 8695 l0 -135 675 0 675 0 0 135 0 135 -675 0 -675 0 0 -135z"/>
<path d="M5150 8285 l0 -135 470 0 470 0 0 135 0 135 -470 0 -470 0 0 -135z"/>
<path d="M5150 7665 l0 -135 1495 0 1495 0 0 135 0 135 -1495 0 -1495 0 0
-135z"/>
<path d="M5150 7255 l0 -135 1495 0 1495 0 0 135 0 135 -1495 0 -1495 0 0
-135z"/>
<path d="M5150 6845 l0 -135 1495 0 1495 0 0 135 0 135 -1495 0 -1495 0 0
-135z"/>
<path d="M5150 6435 l0 -135 1495 0 1495 0 0 135 0 135 -1495 0 -1495 0 0
-135z"/>
<path d="M5560 6025 l0 -135 1085 0 1085 0 0 135 0 135 -1085 0 -1085 0 0
-135z"/>
<path d="M7458 5542 l-668 -2 0 -135 0 -135 675 0 675 0 0 134 c0 74 -3 136
-7 138 -5 2 -308 2 -675 0z"/>
<path d="M7648 5132 l-448 -2 0 -135 0 -135 470 0 470 0 0 134 c0 131 0 134
-22 137 -13 2 -224 3 -470 1z"/>
<path d="M4420 5728 c-85 -30 -152 -73 -222 -145 -240 -245 -200 -642 86 -836
92 -62 172 -87 287 -87 188 0 289 38 405 154 118 117 171 253 161 411 -10 166
-94 326 -221 422 -104 78 -157 95 -306 100 -111 3 -133 1 -190 -19z m280 -279
c171 -77 212 -285 84 -428 -87 -97 -192 -114 -317 -53 -69 34 -105 77 -133
154 -29 84 -6 187 62 267 64 77 206 105 304 60z"/>
</g>
</svg>
