<?xml version="1.0" standalone="no"?>
<!DOCTYPE svg PUBLIC "-//W3C//DTD SVG 20010904//EN"
 "http://www.w3.org/TR/2001/REC-SVG-20010904/DTD/svg10.dtd">
<svg version="1.0" xmlns="http://www.w3.org/2000/svg"
 width="1280.000000pt" height="1252.000000pt" viewBox="0 0 1280.000000 1252.000000"
 preserveAspectRatio="xMidYMid meet">

<g transform="translate(0.000000,1252.000000) scale(0.100000,-0.100000)"
fill="#e6e600" stroke="none">
<path d="M4747 8946 c-55 -20 -103 -61 -134 -114 -27 -46 -28 -51 -31 -230 -5
-261 15 -329 115 -392 l45 -29 -373 -3 -374 -3 -57 -27 c-79 -37 -149 -109
-179 -184 -21 -54 -24 -77 -27 -257 -10 -535 135 -1010 436 -1432 273 -383
608 -627 1082 -791 185 -63 206 -73 305 -139 39 -25 147 -84 241 -130 l171
-85 31 -62 c65 -133 102 -288 102 -424 0 -102 -11 -157 -58 -301 l-37 -113
-90 0 c-172 -1 -282 -39 -378 -132 -95 -94 -129 -176 -142 -346 l-7 -90 -142
-5 c-201 -7 -260 -30 -306 -122 -25 -50 -25 -52 -25 -315 0 -254 1 -267 22
-306 24 -45 82 -100 120 -115 15 -5 587 -9 1437 -9 1554 0 1450 -4 1512 62 67
70 69 79 72 346 4 275 -4 323 -60 380 -61 63 -123 82 -298 91 l-125 6 -6 103
c-9 149 -45 230 -141 324 -92 89 -204 128 -375 128 l-92 0 -31 98 c-51 162
-63 241 -58 371 6 132 39 252 106 375 l37 70 99 42 c106 46 247 124 338 187
40 28 107 56 235 99 97 32 218 78 268 101 445 205 803 549 1018 982 80 160
128 283 173 437 64 222 99 521 93 778 -4 137 -6 148 -33 203 -44 86 -88 132
-164 169 l-67 33 -368 3 -369 3 40 29 c97 70 115 132 110 382 -3 190 -3 194
-31 240 -15 26 -42 59 -60 72 -77 59 -15 56 -1292 56 l-1172 0 -33 -22 c-93
-64 -91 -204 3 -256 30 -16 116 -17 1162 -22 l1130 -5 -1 -32 c0 -18 -1 -60
-2 -93 l-2 -60 -1617 3 -1618 2 0 95 0 95 315 -3 c314 -4 315 -4 360 20 29 15
51 36 62 58 37 74 12 170 -52 202 -31 16 -72 18 -405 18 -283 -1 -379 -4 -408
-14z m3150 -1563 c-4 -855 -1 -813 -63 -1028 -35 -123 -129 -312 -211 -420
-110 -146 -224 -252 -375 -346 -141 -88 -222 -126 -351 -165 -338 -101 -699
-72 -1012 81 -147 72 -242 141 -366 264 -193 193 -308 392 -375 650 -51 199
-54 258 -54 1033 l0 718 1406 0 1405 0 -4 -787z m-3107 438 l0 -49 -232 -4
c-231 -3 -233 -4 -285 -31 -99 -51 -133 -151 -113 -325 24 -210 86 -412 195
-638 140 -292 256 -436 497 -619 57 -43 71 -61 116 -147 28 -54 49 -98 46 -98
-15 0 -207 142 -317 235 -341 287 -551 686 -637 1205 -24 150 -36 420 -21 478
l12 42 369 0 370 0 0 -49z m4161 22 c15 -37 5 -311 -15 -462 -39 -280 -149
-599 -286 -827 -110 -181 -275 -358 -465 -499 -107 -79 -205 -142 -205 -132 0
3 23 47 50 99 46 84 57 98 122 143 103 72 211 182 315 321 106 143 144 207
173 293 36 107 11 174 -75 207 -55 20 -108 14 -142 -18 -14 -13 -45 -57 -70
-98 -65 -107 -147 -230 -153 -230 -3 0 -4 184 -2 410 l2 410 166 0 166 0 -6
-27 c-22 -109 -36 -216 -30 -237 7 -31 74 -93 109 -102 65 -16 135 16 166 78
26 51 57 191 65 293 9 116 -10 179 -75 237 -27 24 -67 50 -89 56 -25 8 -117
12 -256 12 l-216 0 0 50 0 50 370 0 370 0 11 -27z m-4159 -795 c2 -227 2 -414
2 -416 -4 -9 -132 197 -169 273 -70 144 -132 350 -150 498 l-7 57 161 0 160 0
3 -412z m1842 -2058 c-28 -95 -44 -227 -44 -355 0 -118 12 -201 46 -311 13
-44 24 -83 24 -87 0 -4 -74 -7 -165 -7 -129 0 -165 3 -165 13 0 7 14 51 31 98
30 80 32 93 37 259 5 190 -4 276 -41 393 l-23 73 161 -1 161 0 -22 -75z m604
-1098 c34 -32 55 -111 50 -184 l-3 -43 -790 0 -790 0 2 79 c3 91 16 122 62
153 l34 23 702 0 703 0 30 -28z m532 -667 l0 -135 -1275 0 -1275 0 0 135 0
135 1275 0 1275 0 0 -135z"/>
<path d="M6435 7641 c-101 -25 -171 -103 -245 -274 -19 -43 -39 -81 -44 -86
-6 -4 -67 -15 -136 -25 -197 -27 -286 -80 -324 -194 -43 -126 -10 -212 138
-358 l103 -102 -24 -123 c-17 -87 -23 -141 -19 -182 14 -144 123 -247 261
-247 76 0 101 8 240 82 l110 59 129 -67 c143 -74 212 -89 301 -64 59 16 127
77 159 142 33 66 34 132 5 286 l-22 113 106 108 c119 120 150 173 150 256 -1
77 -20 132 -64 180 -64 69 -159 103 -336 121 l-73 7 -65 133 c-52 105 -75 141
-112 173 -67 60 -154 82 -238 62z m111 -441 c26 -49 61 -106 77 -126 41 -49
128 -88 245 -110 53 -10 99 -19 101 -21 3 -2 -34 -43 -82 -91 -47 -48 -93
-104 -102 -124 -20 -48 -20 -175 0 -269 9 -40 14 -74 12 -76 -3 -2 -58 22
-123 54 -105 52 -125 58 -180 58 -55 0 -74 -6 -175 -57 -63 -31 -116 -55 -118
-53 -1 2 2 35 9 74 6 39 13 110 13 159 2 79 -1 92 -26 134 -15 26 -61 77 -102
114 -41 37 -75 70 -75 74 0 4 36 12 80 19 98 15 179 41 224 72 38 26 97 110
142 202 15 31 29 57 30 57 2 0 24 -40 50 -90z"/>
</g>
</svg>
