<?xml version="1.0" standalone="no"?>
<!DOCTYPE svg PUBLIC "-//W3C//DTD SVG 20010904//EN"
 "http://www.w3.org/TR/2001/REC-SVG-20010904/DTD/svg10.dtd">
<svg version="1.0" xmlns="http://www.w3.org/2000/svg"
 width="1280.000000pt" height="1252.000000pt" viewBox="0 0 1280.000000 1252.000000"
 preserveAspectRatio="xMidYMid meet">

<g transform="translate(0.000000,1252.000000) scale(0.100000,-0.100000)"
fill="#000000" stroke="none">
<path d="M4829 8007 c-855 -343 -1602 -641 -1660 -662 -57 -21 -147 -59 -199
-83 -79 -37 -92 -46 -75 -53 11 -4 360 -144 775 -309 415 -165 783 -312 817
-326 l62 -26 3 -551 4 -552 27 -80 c41 -122 91 -199 202 -310 139 -140 304
-247 500 -325 334 -133 840 -212 1255 -197 514 19 988 151 1306 362 152 101
290 248 355 377 78 155 94 319 85 874 l-6 401 38 16 c87 38 773 307 782 307 7
0 10 -345 10 -974 l0 -974 -86 -49 c-139 -77 -255 -209 -298 -336 -78 -233
-14 -485 167 -660 34 -32 78 -67 98 -78 21 -10 40 -23 43 -27 7 -12 -41 -164
-198 -629 -69 -205 -126 -381 -126 -391 0 -20 10 -25 160 -76 74 -25 218 -66
232 -66 4 0 51 134 104 298 54 163 103 303 109 310 10 11 15 4 24 -34 7 -26
48 -150 91 -274 43 -125 82 -243 85 -264 9 -43 7 -43 155 1 172 51 250 84 250
103 0 24 -49 176 -199 621 -67 196 -121 367 -121 381 0 18 11 30 41 47 61 35
169 141 208 205 82 137 112 313 77 460 -40 170 -163 331 -310 406 -37 19 -75
44 -82 55 -12 16 -14 189 -14 1060 0 572 4 1046 8 1052 8 12 248 114 365 155
31 11 57 22 57 24 0 13 -294 136 -700 294 -168 65 -929 369 -1310 523 -1099
444 -1492 597 -1533 597 -12 0 -722 -281 -1578 -623z m1866 68 c325 -132 1636
-655 1845 -737 183 -72 276 -117 264 -127 -5 -5 -155 -66 -334 -136 -331 -130
-818 -323 -1465 -580 -198 -79 -398 -160 -445 -180 -151 -65 -171 -62 -435 52
-248 107 -1852 752 -2010 808 -44 16 -84 32 -89 36 -17 15 216 115 764 327
141 55 321 127 400 160 126 53 368 149 865 344 72 28 177 70 235 94 58 24 114
43 125 43 11 0 137 -47 280 -104z m-965 -1999 c513 -206 672 -266 696 -262 30
4 361 133 734 286 224 92 582 233 640 253 l45 15 3 -396 c3 -438 -1 -467 -59
-561 -95 -156 -436 -327 -784 -395 -274 -53 -535 -73 -747 -57 -453 33 -815
133 -1053 290 -93 61 -188 165 -213 234 -21 56 -22 72 -22 477 l0 420 48 -19
c26 -10 346 -138 712 -285z m3689 -1575 c20 -11 44 -28 54 -39 25 -27 46 -88
47 -133 0 -53 -44 -132 -93 -165 -37 -25 -51 -28 -110 -27 -75 2 -130 23 -159
63 -22 31 -42 142 -33 190 22 115 173 172 294 111z"/>
</g>
</svg>
