<?xml version="1.0" standalone="no"?>
<!DOCTYPE svg PUBLIC "-//W3C//DTD SVG 20010904//EN"
 "http://www.w3.org/TR/2001/REC-SVG-20010904/DTD/svg10.dtd">
<svg version="1.0" xmlns="http://www.w3.org/2000/svg"
 width="1280.000000pt" height="1252.000000pt" viewBox="0 0 1280.000000 1252.000000"
 preserveAspectRatio="xMidYMid meet">

<g transform="translate(0.000000,1252.000000) scale(0.100000,-0.100000)"
fill="#000000" stroke="none">
<path d="M6313 9442 c-28 -10 -77 -38 -108 -61 -100 -76 -119 -116 -274 -585
-243 -735 -411 -1258 -411 -1283 0 -13 -120 -14 -897 -13 -620 2 -914 -1 -951
-9 -176 -36 -303 -168 -334 -348 -22 -130 19 -266 107 -356 26 -25 222 -174
438 -330 216 -156 539 -390 719 -521 l326 -237 -58 -177 c-32 -97 -116 -352
-185 -567 -70 -214 -164 -502 -210 -640 -94 -281 -105 -325 -105 -429 0 -162
91 -303 240 -375 50 -24 66 -26 175 -26 169 0 150 -10 646 352 119 87 245 179
280 204 35 25 214 155 397 287 183 133 337 244 342 247 10 6 86 -45 315 -211
441 -320 788 -573 830 -604 166 -123 311 -224 357 -248 49 -25 62 -27 173 -27
120 0 122 0 197 38 52 25 91 53 122 88 134 149 139 310 21 644 -23 66 -126
381 -229 700 -103 319 -200 617 -215 662 l-28 83 76 52 c89 62 253 181 441
323 74 56 263 193 420 305 356 254 507 369 555 421 78 86 117 224 97 339 -23
128 -95 238 -193 297 -114 68 -75 66 -1079 63 l-905 -2 -88 274 c-49 150 -109
336 -133 413 -25 77 -72 221 -104 320 -32 99 -95 293 -139 430 -87 268 -123
344 -201 425 -74 75 -124 95 -260 98 -91 2 -126 -2 -167 -16z m190 -389 c8
-16 54 -149 101 -298 48 -148 118 -364 156 -480 175 -535 350 -1074 362 -1112
l13 -43 1031 0 1032 0 5 -27 c3 -15 3 -32 0 -38 -2 -7 -75 -63 -161 -126 -157
-113 -922 -668 -1081 -783 -46 -34 -139 -102 -206 -153 -68 -50 -142 -102
-164 -115 -23 -13 -41 -29 -41 -37 0 -7 16 -60 35 -117 44 -133 172 -522 268
-819 41 -126 130 -398 197 -603 122 -376 133 -424 98 -445 -24 -16 -136 60
-633 428 -60 45 -184 135 -275 201 -91 67 -300 219 -465 339 -165 120 -307
219 -315 219 -8 0 -73 -43 -145 -95 -71 -53 -247 -180 -390 -284 -312 -226
-522 -379 -790 -576 -246 -180 -342 -242 -361 -235 -8 3 -19 17 -24 32 -9 22
12 92 131 452 77 235 156 474 174 532 46 142 152 469 235 725 81 246 86 265
71 265 -11 0 -108 69 -426 301 -99 73 -299 218 -445 324 -667 484 -765 557
-771 572 -3 9 -4 27 -1 40 l4 23 1032 0 1031 0 21 68 c12 37 94 288 182 557
142 435 347 1065 404 1245 25 80 33 90 69 90 21 0 32 -7 42 -27z"/>
</g>
</svg>
